<svg width="39" height="39" viewBox="0 0 39 39" fill="none" xmlns="http://www.w3.org/2000/svg">
<path d="M12.1875 9.75001V10.9688C12.3881 10.9687 12.5857 10.9192 12.7626 10.8245C12.9394 10.7298 13.0902 10.5929 13.2015 10.426L12.1875 9.75001ZM22.7825 6.33426C23.0676 6.48661 23.4015 6.51946 23.7108 6.4256C23.864 6.37913 24.0065 6.30294 24.1302 6.20139C24.2539 6.09984 24.3564 5.97492 24.4319 5.83375C24.5073 5.69259 24.5542 5.53795 24.5699 5.37867C24.5856 5.21938 24.5697 5.05857 24.5232 4.90541C24.4767 4.75225 24.4006 4.60975 24.299 4.48603C24.1975 4.36232 24.0725 4.25982 23.9314 4.18438L22.7825 6.33426ZM36.6373 14.0091C36.5433 13.6997 36.3303 13.4402 36.045 13.2879C35.7598 13.1355 35.4257 13.1027 35.1163 13.1966C34.8068 13.2906 34.5474 13.5036 34.395 13.7889C34.2426 14.0741 34.2098 14.4082 34.3038 14.7176L36.6373 14.0091ZM34.5313 18.6875V21.9375H36.9688V18.6875H34.5313ZM23.5625 32.9063H15.4375V35.3438H23.5625V32.9063ZM4.46875 21.9375V18.6875H2.03125V21.9375H4.46875ZM20.085 3.65626H18.915V6.09376H20.085V3.65626ZM12.493 7.09313L11.1719 9.07401L13.2015 10.426L14.521 8.44513L12.493 7.09313ZM18.915 3.65626C18.0863 3.65626 17.381 3.65626 16.796 3.70988C16.185 3.76676 15.6179 3.88863 15.067 4.18438L16.2175 6.33426C16.3833 6.24488 16.601 6.17501 17.0219 6.13601C17.4688 6.09538 18.0408 6.09376 18.915 6.09376V3.65626ZM14.5226 8.44513C15.0069 7.71876 15.3254 7.24263 15.6065 6.89488C15.873 6.56663 16.0518 6.42363 16.2191 6.33426L15.067 4.18438C14.5145 4.48013 14.0985 4.88313 13.7134 5.36088C13.3429 5.81588 12.9529 6.40413 12.493 7.09313L14.5226 8.44513ZM4.46875 18.6875C4.46875 16.3313 4.48175 15.4229 4.69625 14.7176L2.36438 14.0075C2.01825 15.1466 2.03125 16.5068 2.03125 18.6859L4.46875 18.6875ZM12.1875 8.53126C10.0084 8.53126 8.64825 8.51825 7.50913 8.86438L8.21763 11.1963C8.92288 10.9818 9.83125 10.9688 12.1875 10.9688V8.53126ZM4.69625 14.7176C4.94834 13.8863 5.40158 13.1301 6.01583 12.5158C6.63007 11.9016 7.38634 11.4483 8.21763 11.1963L7.50913 8.86438C6.29521 9.23298 5.18924 9.8951 4.29217 10.7922C3.3951 11.6892 2.73298 12.7936 2.36438 14.0075L4.69625 14.7176ZM15.4375 32.9063C12.7368 32.9063 10.8176 32.9046 9.34538 32.7308C7.90075 32.5601 7.04763 32.2368 6.40088 31.707L4.85388 33.592C6.006 34.5378 7.384 34.9521 9.05938 35.152C10.7088 35.347 12.7969 35.3438 15.4375 35.3438V32.9063ZM2.03125 21.9375C2.03125 24.5781 2.02963 26.6663 2.22463 28.3156C2.42288 29.9894 2.83725 31.3706 3.78463 32.5211L5.668 30.9758C5.13825 30.329 4.81488 29.4743 4.64425 28.0296C4.47038 26.5574 4.46875 24.6383 4.46875 21.9375H2.03125ZM6.40088 31.707C6.13414 31.4874 5.88763 31.2425 5.668 30.9758L3.78463 32.5211C4.10638 32.9122 4.46171 33.2692 4.85388 33.592L6.40088 31.707ZM34.5313 21.9375C34.5313 24.6383 34.5296 26.5574 34.3558 28.0296C34.1851 29.4743 33.8618 30.329 33.332 30.9758L35.217 32.5211C36.1628 31.369 36.5771 29.991 36.777 28.3156C36.972 26.6663 36.9688 24.5781 36.9688 21.9375H34.5313ZM23.5625 35.3438C26.2031 35.3438 28.2913 35.3454 29.9406 35.1504C31.6144 34.9521 32.9956 34.5378 34.1461 33.5904L32.6024 31.707C31.9556 32.2368 31.0993 32.5601 29.6546 32.7308C28.1824 32.9046 26.2633 32.9063 23.5625 32.9063V35.3438ZM33.332 30.9758C33.1124 31.2425 32.8691 31.4874 32.6024 31.707L34.1461 33.592C34.5372 33.2703 34.8942 32.9133 35.217 32.5211L33.332 30.9758ZM20.085 6.09376C20.9593 6.09376 21.5313 6.09376 21.9781 6.13601C22.399 6.17501 22.6151 6.24488 22.7825 6.33426L23.9314 4.18438C23.3789 3.89026 22.815 3.76676 22.204 3.70988C21.619 3.65463 20.9154 3.65626 20.085 3.65626V6.09376ZM36.9688 18.6875C36.9688 16.5084 36.9818 15.1483 36.6373 14.0091L34.3038 14.7176C34.5183 15.4229 34.5313 16.3313 34.5313 18.6875H36.9688Z" fill="black"/>
<path d="M26 21.125C26 22.8489 25.3152 24.5022 24.0962 25.7212C22.8772 26.9402 21.2239 27.625 19.5 27.625C17.7761 27.625 16.1228 26.9402 14.9038 25.7212C13.6848 24.5022 13 22.8489 13 21.125C13 19.4011 13.6848 17.7478 14.9038 16.5288C16.1228 15.3098 17.7761 14.625 19.5 14.625C21.2239 14.625 22.8772 15.3098 24.0962 16.5288C25.3152 17.7478 26 19.4011 26 21.125ZM29.2078 4.90913C29.2175 4.86363 29.2825 4.86363 29.2922 4.90913C29.5342 6.09106 30.1179 7.17591 30.971 8.02899C31.8241 8.88208 32.9089 9.46582 34.0909 9.70775C34.1364 9.7175 34.1364 9.7825 34.0909 9.79225C32.9089 10.0342 31.8241 10.6179 30.971 11.471C30.1179 12.3241 29.5342 13.4089 29.2922 14.5909C29.2825 14.6364 29.2175 14.6364 29.2078 14.5909C28.9658 13.4089 28.3821 12.3241 27.529 11.471C26.6759 10.6179 25.5911 10.0342 24.4091 9.79225C24.3636 9.7825 24.3636 9.7175 24.4091 9.70775C25.5911 9.46582 26.6759 8.88208 27.529 8.02899C28.3821 7.17591 28.9658 6.09106 29.2078 4.90913Z" stroke="black" stroke-width="1.5" stroke-linecap="round" stroke-linejoin="round"/>
</svg>
