<svg width="24" height="24" viewBox="0 0 24 24" fill="none" xmlns="http://www.w3.org/2000/svg">
<path d="M11.537 19.542L4.5 12.572C4.0053 12.0906 3.61564 11.512 3.35554 10.8726C3.09545 10.2333 2.97056 9.54694 2.98873 8.85693C3.00691 8.16691 3.16776 7.48813 3.46115 6.86333C3.75455 6.23853 4.17413 5.68125 4.69348 5.22657C5.21283 4.7719 5.8207 4.42968 6.47881 4.22147C7.13691 4.01327 7.831 3.94358 8.51736 4.0168C9.20373 4.09001 9.8675 4.30455 10.4669 4.6469C11.0662 4.98925 11.5882 5.45199 12 6.00599C12.7772 4.97358 13.9239 4.28217 15.1997 4.07672C16.4755 3.87127 17.7813 4.16774 18.8433 4.90398C19.9053 5.64022 20.641 6.75903 20.8962 8.02583C21.1514 9.29263 20.9062 10.609 20.212 11.699M19 22.5C19.2053 21.6513 19.6406 20.8755 20.2581 20.2581C20.8755 19.6406 21.6513 19.2053 22.5 19C21.6513 18.7947 20.8755 18.3594 20.2581 17.7419C19.6406 17.1245 19.2053 16.3487 19 15.5C18.7947 16.3487 18.3594 17.1245 17.7419 17.7419C17.1245 18.3594 16.3487 18.7947 15.5 19C16.3487 19.2053 17.1245 19.6406 17.7419 20.2581C18.3594 20.8755 18.7947 21.6513 19 22.5Z" stroke="black" stroke-width="2" stroke-linecap="round" stroke-linejoin="round"/>
</svg>