<svg width="35" height="35" viewBox="0 0 35 35" fill="none" xmlns="http://www.w3.org/2000/svg">
<path d="M8.75 29.1667V32.0833M26.25 29.1667V32.0833M4.375 23.3333H30.625M17.5 23.3333V2.91666M13.125 14.5833V13.125M21.875 14.5833V13.125M4.375 20.4167V11.6667C4.375 7.54249 4.375 5.47895 5.73125 4.19853C7.0875 2.91811 9.27208 2.91666 13.6398 2.91666H21.3602C25.7279 2.91666 27.911 2.91666 29.2688 4.19853C30.625 5.47895 30.625 7.54249 30.625 11.6667V20.4167C30.625 24.5408 30.625 26.6044 29.2688 27.8848C27.9125 29.1652 25.7279 29.1667 21.3602 29.1667H13.6398C9.27208 29.1667 7.08896 29.1667 5.73125 27.8848C4.375 26.6044 4.375 24.5408 4.375 20.4167Z" stroke="black" stroke-width="1.5" stroke-linecap="round" stroke-linejoin="round"/>
</svg>
