<svg width="34" height="34" viewBox="0 0 34 34" fill="none" xmlns="http://www.w3.org/2000/svg">
<path d="M22.6667 23.375L28.3333 29.0417M25.5 16.2917C25.5 18.253 24.9184 20.1703 23.8287 21.8011C22.7391 23.4319 21.1903 24.7029 19.3783 25.4535C17.5662 26.204 15.5723 26.4004 13.6487 26.0178C11.725 25.6352 9.95806 24.6907 8.57119 23.3038C7.18432 21.9169 6.23985 20.15 5.85721 18.2263C5.47458 16.3027 5.67096 14.3088 6.42153 12.4967C7.1721 10.6847 8.44314 9.13592 10.0739 8.04626C11.7047 6.9566 13.622 6.375 15.5833 6.375" stroke="black" stroke-width="1.5" stroke-linecap="round" stroke-linejoin="round"/>
<path d="M21.9583 4.95834L22.3238 5.94576C22.8027 7.24059 23.0421 7.88801 23.5138 8.35976C23.987 8.83293 24.6344 9.07234 25.9293 9.55118L26.9167 9.91668L25.9293 10.2822C24.6344 10.761 23.987 11.0004 23.5153 11.4722C23.0421 11.9453 22.8027 12.5928 22.3238 13.8876L21.9583 14.875L21.5928 13.8876C21.114 12.5928 20.8746 11.9453 20.4028 11.4736C19.9297 11.0004 19.2822 10.761 17.9874 10.2822L17 9.91668L17.9874 9.55118C19.2822 9.07234 19.9297 8.83293 20.4014 8.36118C20.8746 7.88801 21.114 7.24059 21.5928 5.94576L21.9583 4.95834Z" stroke="black" stroke-width="1.5" stroke-linecap="round" stroke-linejoin="round"/>
</svg>
